<?xml version="1.0" standalone="no"?>
<!DOCTYPE svg PUBLIC "-//W3C//DTD SVG 20010904//EN"
 "http://www.w3.org/TR/2001/REC-SVG-20010904/DTD/svg10.dtd">
<svg version="1.0" xmlns="http://www.w3.org/2000/svg"
 width="137.000000pt" height="149.000000pt" viewBox="0 0 137.000000 149.000000"
 preserveAspectRatio="xMidYMid meet">

<g transform="translate(0.000000,149.000000) scale(0.100000,-0.100000)"
fill="#000000" stroke="none">
<path d="M614 1420 c-236 -62 -434 -256 -486 -478 -7 -29 -15 -52 -18 -52 -3
0 -4 -16 -2 -35 3 -21 0 -35 -7 -35 -7 0 -11 -28 -10 -82 1 -61 3 -76 10 -58
6 18 7 10 4 -30 -3 -36 -1 -48 4 -35 7 15 9 8 8 -25 -2 -92 108 -312 148 -296
7 2 21 -4 31 -15 29 -32 37 -21 13 19 -19 30 -5 20 69 -49 94 -88 179 -140
271 -164 42 -10 247 -12 282 -1 8 2 34 9 59 16 62 16 158 65 200 101 l35 30
-40 -20 c-116 -56 -282 -71 -400 -37 -136 40 -269 134 -334 235 l-31 48 21 50
20 50 62 10 c34 6 123 11 198 12 113 1 138 -2 143 -14 3 -8 15 -15 27 -15 12
0 41 -18 65 -40 24 -22 50 -40 57 -40 8 0 21 -18 30 -40 l15 -40 82 0 c62 0
81 3 77 12 -2 7 -26 61 -52 120 l-46 106 34 46 c46 60 61 106 54 176 -9 103
-70 183 -160 210 -46 14 -228 21 -275 11 l-30 -6 25 -60 c14 -33 30 -66 35
-72 7 -9 42 -13 108 -13 92 0 99 -1 124 -26 28 -29 35 -79 15 -116 -22 -41
-65 -48 -289 -48 -193 0 -210 1 -210 18 0 32 16 45 48 39 16 -3 34 -1 41 6 8
8 11 8 11 -1 0 -8 24 -12 80 -12 58 0 80 3 79 13 0 6 -26 71 -58 142 l-57 130
-78 5 c-43 3 -82 3 -87 -1 -5 -3 -47 -93 -94 -200 l-85 -194 0 79 c0 124 46
262 115 345 15 17 23 31 18 31 -12 0 -118 -107 -142 -143 -9 -15 -21 -24 -26
-20 -4 5 -5 3 -1 -4 8 -14 -24 -84 -35 -77 -18 11 -52 -114 -59 -221 l-7 -110
-1 94 c-2 117 16 198 71 311 33 68 59 103 127 171 72 73 100 93 180 132 56 28
126 53 172 62 84 16 194 20 202 7 3 -5 19 -7 36 -4 17 2 30 0 30 -6 0 -6 9 -8
20 -5 11 3 20 0 20 -6 0 -5 7 -8 15 -5 8 4 15 1 15 -5 0 -6 7 -8 15 -5 8 4 15
1 15 -6 0 -6 5 -8 10 -5 6 3 40 -9 76 -29 36 -19 64 -30 62 -25 -6 19 -116
101 -180 134 -140 74 -331 95 -484 55z m16 -584 c0 -12 -5 -7 -19 24 -11 24
-11 24 3 6 9 -11 16 -24 16 -30z m-39 -3 c-12 -20 -14 -14 -5 12 4 9 9 14 11
11 3 -2 0 -13 -6 -23z m-334 -55 c-3 -7 -5 -2 -5 12 0 14 2 19 5 13 2 -7 2
-19 0 -25z m-10 -55 c-3 -10 -5 -4 -5 12 0 17 2 24 5 18 2 -7 2 -21 0 -30z
m-20 -205 c-3 -8 -6 -5 -6 6 -1 11 2 17 5 13 3 -3 4 -12 1 -19z m783 -13 c0
-5 -5 -3 -10 5 -5 8 -10 20 -10 25 0 6 5 3 10 -5 5 -8 10 -19 10 -25z m-850
-20 c0 -5 -5 -3 -10 5 -5 8 -10 20 -10 25 0 6 5 3 10 -5 5 -8 10 -19 10 -25z
m265 -245 c21 -22 37 -40 34 -40 -3 0 -23 18 -44 40 -21 22 -37 40 -34 40 3 0
23 -18 44 -40z m66 -57 c13 -16 12 -17 -3 -4 -17 13 -22 21 -14 21 2 0 10 -8
17 -17z m59 -39 c0 -2 -9 0 -20 6 -11 6 -20 13 -20 16 0 2 9 0 20 -6 11 -6 20
-13 20 -16z m173 -61 c-7 -2 -19 -2 -25 0 -7 3 -2 5 12 5 14 0 19 -2 13 -5z"/>
<path d="M776 503 c29 -69 33 -83 26 -82 -22 4 -32 -3 -32 -20 0 -23 35 -37
53 -22 7 5 47 11 88 13 l75 3 -32 73 -33 72 -81 0 -80 0 16 -37z"/>
<path d="M793 63 c9 -2 23 -2 30 0 6 3 -1 5 -18 5 -16 0 -22 -2 -12 -5z"/>
</g>
</svg>
